<svg xmlns="http://www.w3.org/2000/svg" viewBox="0 0 736 76" width="736" height="76" role="img" aria-label="Supported AI providers: Anthropic, OpenAI, Gemini, Copilot, OpenRouter, xAI, DeepSeek, Mistral, Vercel, Bedrock, Ollama, LM Studio">
  <g transform="translate(22 22) scale(1.3333333333333333)" color="#c6c6c6"><path d="M14.18 4h3.7L24 20h-3.78l-1.27-3.32H12.3L11.06 20H7.27L14.18 4Zm-.62 4.6-2.34 6.05h4.65l-2.31-6.05Z" fill="currentColor"/><path d="M0 4h3.7L10.55 20H6.78L0 4Z" fill="currentColor"/></g>
  <g transform="translate(82 22) scale(1.3333333333333333)" color="#c6c6c6"><path d="M21.55 10.04a5.42 5.42 0 0 0-.46-4.45 5.47 5.47 0 0 0-5.9-2.62A5.43 5.43 0 0 0 11.04 1.2a5.45 5.45 0 0 0-5.2 3.79 5.44 5.44 0 0 0-3.62 2.63 5.5 5.5 0 0 0 .67 6.45 5.42 5.42 0 0 0 .46 4.45 5.5 5.5 0 0 0 5.9 2.62 5.42 5.42 0 0 0 4.1 1.83 5.46 5.46 0 0 0 5.2-3.78 5.42 5.42 0 0 0 3.62-2.64 5.49 5.49 0 0 0-.62-6.5Zm-8.13 11.36a4.04 4.04 0 0 1-2.6-.94l.13-.07 4.32-2.5a.7.7 0 0 0 .35-.62v-6.1l1.83 1.06v5.06a4.06 4.06 0 0 1-4.03 4.1Zm-8.7-3.7a4.06 4.06 0 0 1-.48-2.7l.13.08 4.32 2.5a.7.7 0 0 0 .71 0l5.27-3.05v2.12l-.05.03-4.37 2.52a4.06 4.06 0 0 1-5.53-1.5Zm-1.13-9.4a4.04 4.04 0 0 1 2.1-1.78v5.16a.7.7 0 0 0 .35.6l5.25 3.04-1.83 1.06-4.36-2.52a4.06 4.06 0 0 1-1.51-5.56Zm14.97 3.49-5.27-3.06 1.83-1.05 4.36 2.52a4.05 4.05 0 0 1-.62 7.31v-5.16a.7.7 0 0 0-.3-.56Zm1.83-2.74-.13-.08-4.31-2.51a.7.7 0 0 0-.71 0l-5.27 3.05V8.18l.05-.03 4.37-2.52a4.05 4.05 0 0 1 6 4.21Zm-11.43 3.78L8.95 12l-.81-.47v-2.13a.04.04 0 0 1 .02-.04l4.37-2.52a.04.04 0 0 1 .04 0l4.37 2.52a.04.04 0 0 1 .02.04v5.04a.04.04 0 0 1-.02.04l-4.37 2.52a.04.04 0 0 1-.04 0l-4.37-2.52a.04.04 0 0 1-.02-.04v-2.12L9.9 13l1 .58 1.06.6 1 .58 1.05-.6 1-.58V11.5l-1-.6Z" fill="currentColor"/></g>
  <g transform="translate(142 22) scale(1.3333333333333333)" color="#c6c6c6"><path d="M12 2c.7 4.6 4.4 8.3 9 9-4.6.7-8.3 4.4-9 9-.7-4.6-4.4-8.3-9-9 4.6-.7 8.3-4.4 9-9Z" fill="currentColor"/></g>
  <g transform="translate(202 22) scale(1.3333333333333333)" color="#c6c6c6"><path d="M12 .3a12 12 0 0 0-3.8 23.4c.6.1.8-.3.8-.6v-2.1c-3.3.7-4-1.6-4-1.6-.5-1.3-1.3-1.7-1.3-1.7-1.1-.7.1-.7.1-.7 1.2.1 1.8 1.2 1.8 1.2 1 1.8 2.8 1.3 3.5 1 .1-.8.4-1.3.8-1.6-2.7-.3-5.5-1.3-5.5-6 0-1.3.5-2.4 1.2-3.2-.1-.4-.5-1.6.1-3.3 0 0 1-.3 3.3 1.2.9-.2 2-.4 3-.4s2 .2 3 .4c2.3-1.5 3.3-1.2 3.3-1.2.6 1.7.2 2.9.1 3.3.7.8 1.2 1.9 1.2 3.2 0 4.7-2.8 5.7-5.5 6 .4.4.8 1.1.8 2.2v3.3c0 .3.2.7.8.6A12 12 0 0 0 12 .3Z" fill="currentColor"/></g>
  <g transform="translate(262 22) scale(1.3333333333333333)" color="#c6c6c6"><path d="M2 6h6a4 4 0 0 1 4 4v0a4 4 0 0 0 4 4h6" stroke="currentColor" stroke-width="2" fill="none" stroke-linecap="round"/><path d="M22 4 18 6 18 6 22 8" stroke="currentColor" stroke-width="2" fill="none" stroke-linejoin="round"/><path d="M22 12 18 14 22 16" stroke="currentColor" stroke-width="2" fill="none" stroke-linejoin="round"/></g>
  <g transform="translate(322 22) scale(1.3333333333333333)" color="#c6c6c6"><path d="M3 4 9 12 3 20 H7 L11 14 L15 20 H21 L15 12 L21 4 H17 L13 10 L9 4 Z" fill="currentColor"/></g>
  <g transform="translate(382 22) scale(1.3333333333333333)" color="#c6c6c6"><path d="M12 2 L20 7 V17 L12 22 L4 17 V7 Z" stroke="currentColor" stroke-width="1.6" fill="none"/><circle cx="12" cy="12" r="3" fill="currentColor"/></g>
  <g transform="translate(442 22) scale(1.3333333333333333)" color="#c6c6c6"><rect x="2" y="4" width="4" height="4" fill="currentColor"/><rect x="2" y="10" width="4" height="4" fill="currentColor"/><rect x="2" y="16" width="4" height="4" fill="currentColor"/><rect x="10" y="4" width="4" height="4" fill="currentColor"/><rect x="10" y="16" width="4" height="4" fill="currentColor"/><rect x="18" y="4" width="4" height="4" fill="currentColor"/><rect x="18" y="10" width="4" height="4" fill="currentColor"/><rect x="18" y="16" width="4" height="4" fill="currentColor"/></g>
  <g transform="translate(502 22) scale(1.3333333333333333)" color="#c6c6c6"><path d="M12 2 L23 22 L1 22 Z" fill="currentColor"/></g>
  <g transform="translate(562 22) scale(1.3333333333333333)" color="#c6c6c6"><path d="M3 17 12 21 21 17 V7 L12 3 L3 7 Z" stroke="currentColor" stroke-width="1.5" fill="none" stroke-linejoin="round"/><path d="M3 7 12 11 21 7 M12 11 V21" stroke="currentColor" stroke-width="1.5" fill="none"/></g>
  <g transform="translate(622 22) scale(1.3333333333333333)" color="#c6c6c6"><circle cx="12" cy="12" r="9" stroke="currentColor" stroke-width="1.6" fill="none"/><circle cx="9" cy="11" r="1.4" fill="currentColor"/><circle cx="15" cy="11" r="1.4" fill="currentColor"/><path d="M8 16 Q12 18 16 16" stroke="currentColor" stroke-width="1.5" fill="none" stroke-linecap="round"/></g>
  <g transform="translate(682 22) scale(1.3333333333333333)" color="#c6c6c6"><rect x="3" y="5" width="18" height="13" rx="2" stroke="currentColor" stroke-width="1.6" fill="none"/><path d="M9 21 H15 M12 18 V21" stroke="currentColor" stroke-width="1.6" stroke-linecap="round"/><path d="M8 11 11 14 16 9" stroke="currentColor" stroke-width="1.6" fill="none" stroke-linejoin="round"/></g>
</svg>
